<?xml version="1.0" encoding="utf-8"?>
<!-- Generator: Adobe Illustrator 28.0.0, SVG Export Plug-In . SVG Version: 6.00 Build 0)  -->
<svg version="1.1" id="Layer_1" xmlns="http://www.w3.org/2000/svg" xmlns:xlink="http://www.w3.org/1999/xlink" x="0px" y="0px"
	 viewBox="0 0 24 24" style="enable-background:new 0 0 24 24;" xml:space="preserve">
<path d="M5.6,14.7c0-1.1,0-2.1,0-3.2c0.4,0,0.7,0,1.1,0c0-0.4,0-0.7,0-1.1c0.4,0,0.7,0,1.1,0c0-0.7,0-1.4,0-2.2c0.4,0,0.7,0,1.1,0
	c0-0.4,0-0.7,0-1.1c0.4,0,0.7,0,1.1,0c0-0.4,0-0.7,0-1.1c0.4,0,0.7,0,1.1,0c0-0.4,0-0.7,0-1.1c0.7,0,1.4,0,2.2,0c0,0.4,0,0.7,0,1.1
	c0.4,0,0.7,0,1.1,0c0,0.4,0,0.7,0,1.1c0.4,0,0.7,0,1.1,0c0,0.4,0,0.7,0,1.1c0.4,0,0.7,0,1.1,0c0,0.7,0,1.4,0,2.1c0.4,0,0.7,0,1.1,0
	c0,0.4,0,0.7,0,1.1c0.4,0,0.7,0,1.1,0c0,1.1,0,2.2,0,3.2C14.2,14.7,9.9,14.7,5.6,14.7z M20.6,17.9c0.4,0,0.7,0,1.1,0
	c0-0.4,0-0.7,0-1.1c0.4,0,0.7,0,1.1,0c0-1.5,0-2.9,0-4.3c-0.7,0-1.4,0-2.2,0c0,1.1,0,2.1,0,3.2c-0.4,0-0.7,0-1.1,0c0,0.4,0,0.7,0,1
	c-5,0-10,0-15,0c0-0.4,0-0.7,0-1.1c-0.4,0-0.7,0-1.1,0c0-1.1,0-2.1,0-3.2c-0.7,0-1.4,0-2.2,0c0,1.4,0,2.9,0,4.3c0.4,0,0.7,0,1.1,0
	c0,0.4,0,0.7,0,1.1c0.4,0,0.7,0,1.1,0c0,0.4,0,0.7,0,1.1c5.7,0,11.4,0,17.2,0C20.6,18.6,20.6,18.3,20.6,17.9z"/>
</svg>
