<?xml version="1.0" encoding="utf-8"?>
<!-- Generator: Adobe Illustrator 28.0.0, SVG Export Plug-In . SVG Version: 6.00 Build 0)  -->
<svg version="1.1" id="Layer_1" xmlns="http://www.w3.org/2000/svg" xmlns:xlink="http://www.w3.org/1999/xlink" x="0px" y="0px"
	 viewBox="0 0 24 24" style="enable-background:new 0 0 24 24;" xml:space="preserve">
<path d="M13.1,14.7c-0.7,0-1.4,0-2.2,0c0-0.3,0-0.7,0-1.1c-0.4,0-0.7,0-1.1,0c0-0.4,0-0.7,0-1.1c-0.4,0-0.7,0-1,0c0,0,0,0,0,0
	c0,0,0,0,0,0c0-0.3,0-0.7,0-1c-0.4,0-0.7,0-1.1,0c0-0.7,0-1.4,0-2.2c-0.4,0-0.7,0-1.1,0c0-0.4,0-0.7,0-1.1c-0.4,0-0.7,0-1.1,0
	c0-1.1,0-2.1,0-3.2c4.3,0,8.6,0,12.9,0c0,1.1,0,2.1,0,3.2c-0.3,0-0.7,0-1,0c0,0.4,0,0.7,0,1.1c-0.4,0-0.7,0-1.1,0c0,0,0,0,0,0
	c0,0,0,0,0,0c0,0.7,0,1.4,0,2.1c-0.4,0-0.7,0-1.1,0c0,0.4,0,0.7,0,1.1c-0.4,0-0.7,0-1.1,0c0,0.4,0,0.7,0,1.1c-0.4,0-0.7,0-1.1,0
	C13.1,14,13.1,14.3,13.1,14.7z M4.5,16.8c0-0.4,0-0.7,0-1.1c-0.4,0-0.7,0-1.1,0c0-1.1,0-2.1,0-3.2c0,0,0,0,0,0c0,0,0,0,0,0
	c-0.7,0-1.4,0-2.1,0c0,1.4,0,2.9,0,4.3c0.3,0,0.7,0,1,0c0,0,0,0,0.1,0.1c0,0.3,0,0.7,0,1c0.3,0,0.7,0,1,0c0,0,0,0,0,0c0,0,0,0,0,0
	c0,0.3,0,0.7,0,1c5.7,0,11.5,0,17.2,0c0-0.4,0-0.7,0-1c0.4,0,0.7,0,1.1,0c0,0,0,0,0,0c0,0,0,0,0,0c0-0.3,0-0.7,0-1.1
	c0.4,0,0.7,0,1,0c0-1.4,0-2.9,0-4.3c-0.7,0-1.4,0-2.1,0c0,1.1,0,2.2,0,3.2c-0.4,0-0.7,0-1.1,0c0,0.4,0,0.7,0,1
	C14.5,16.8,9.5,16.8,4.5,16.8z"/>
<path d="M46.7,37c-0.4,0-0.8,0-1.2,0c0,0.4,0,0.8,0,1.1c-0.4,0-0.8,0-1.2,0c0-0.4,0-0.8,0-1.1c-0.4,0-0.8,0-1.1,0
	c0,0-0.1-0.1-0.1-0.1c0-4.7,0-9.4,0-14.1c0.4,0,0.8,0,1.2,0c0-0.4,0-0.8,0-1.2c0.4,0,0.8,0,1.2,0c0,0.4,0,0.7,0,1.1
	c0.4,0,0.8,0,1.2,0C46.8,23,46.8,36.7,46.7,37z M49.1,37c0.4,0,0.8,0,1.2,0c0,0.4,0,0.8,0,1.1c0.4,0,0.8,0,1.2,0c0-0.4,0-0.8,0-1.2
	c0.4,0,0.8,0,1.1,0c0-1,0-14,0-14.2c-0.4,0-0.7,0-1.1,0c0-0.4,0-0.8,0-1.1c-0.4,0-0.8,0-1.2,0c0,0.4,0,0.8,0,1.1c-0.4,0-0.8,0-1.1,0
	C49.1,27.5,49.1,32.2,49.1,37z"/>
<path d="M66.5,23.4c1.1,0,2.1,0,3.2,0c0,0.4,0,0.7,0,1.1c0.4,0,0.7,0,1.1,0c0,0.4,0,0.7,0,1.1c0.7,0,1.4,0,2.2,0c0,0.4,0,0.7,0,1.1
	c0.4,0,0.7,0,1.1,0c0,0.4,0,0.7,0,1.1c0.4,0,0.7,0,1.1,0c0,0.4,0,0.7,0,1.1c0.4,0,0.7,0,1.1,0c0,0.7,0,1.4,0,2.2c-0.4,0-0.7,0-1.1,0
	c0,0.4,0,0.7,0,1.1c-0.4,0-0.7,0-1.1,0c0,0.4,0,0.7,0,1.1c-0.4,0-0.7,0-1.1,0c0,0.4,0,0.7,0,1.1c-0.7,0-1.4,0-2.1,0
	c0,0.4,0,0.7,0,1.1c-0.4,0-0.7,0-1.1,0c0,0.4,0,0.7,0,1.1c-1.1,0-2.2,0-3.2,0C66.5,32,66.5,27.7,66.5,23.4z"/>
</svg>
