<?xml version="1.0" encoding="utf-8"?>
<!-- Generator: Adobe Illustrator 28.0.0, SVG Export Plug-In . SVG Version: 6.00 Build 0)  -->
<svg version="1.1" id="Layer_1" xmlns="http://www.w3.org/2000/svg" xmlns:xlink="http://www.w3.org/1999/xlink" x="0px" y="0px"
	 viewBox="0 0 24 24" style="enable-background:new 0 0 24 24;" xml:space="preserve">
<style type="text/css">
	.st0{fill:#FFFFFF;}
</style>
<path class="st0" d="M7.1,5.4c1.1,0,2.1,0,3.2,0c0,0.4,0,0.7,0,1.1c0.4,0,0.7,0,1.1,0c0,0.4,0,0.7,0,1.1c0.7,0,1.4,0,2.2,0
	c0,0.4,0,0.7,0,1.1c0.4,0,0.7,0,1.1,0c0,0.4,0,0.7,0,1.1c0.4,0,0.7,0,1.1,0c0,0.4,0,0.7,0,1.1c0.4,0,0.7,0,1.1,0c0,0.7,0,1.4,0,2.2
	c-0.4,0-0.7,0-1.1,0c0,0.4,0,0.7,0,1.1c-0.4,0-0.7,0-1.1,0c0,0.4,0,0.7,0,1.1c-0.4,0-0.7,0-1.1,0c0,0.4,0,0.7,0,1.1
	c-0.7,0-1.4,0-2.1,0c0,0.4,0,0.7,0,1.1c-0.4,0-0.7,0-1.1,0c0,0.4,0,0.7,0,1.1c-1.1,0-2.2,0-3.2,0C7.1,14,7.1,9.7,7.1,5.4z"/>
</svg>
