<?xml version="1.0" encoding="utf-8"?>
<!-- Generator: Adobe Illustrator 28.0.0, SVG Export Plug-In . SVG Version: 6.00 Build 0)  -->
<svg version="1.1" id="Layer_1" xmlns="http://www.w3.org/2000/svg" xmlns:xlink="http://www.w3.org/1999/xlink" x="0px" y="0px"
	 viewBox="0 0 24 24" style="enable-background:new 0 0 24 24;" xml:space="preserve">
<path d="M4.1,10.8c3.7,0,7.3,0,11,0c0,2.9,0,5.7,0,8.5c-3.7,0-7.3,0-11,0C4.1,16.5,4.1,13.6,4.1,10.8z M6.5,16.9c2,0,4,0,6.1,0
	c0-1.2,0-2.4,0-3.6c-2,0-4,0-6.1,0C6.5,14.4,6.5,15.6,6.5,16.9z M17.5,10.8c-0.4,0-0.8,0-1.2,0c0,0.8,0,1.6,0,2.4c1.2,0,2.4,0,3.6,0
	c0-2.9,0-5.7,0-8.5c-4.1,0-8.1,0-12.2,0c0,1.6,0,3.3,0,4.9c0.8,0,1.6,0,2.4,0c0-0.8,0-1.6,0-2.4c2.4,0,4.9,0,7.3,0
	C17.5,8.3,17.5,9.5,17.5,10.8z"/>
</svg>
